<?xml version="1.0" encoding="UTF-8"?>
<svg xmlns="http://www.w3.org/2000/svg" xmlns:xlink="http://www.w3.org/1999/xlink" width="297pt" height="217pt" viewBox="0 0 297 217" version="1.1">
<g id="surface60218">
<rect x="0" y="0" width="297" height="217" style="fill:rgb(100%,100%,100%);fill-opacity:1;stroke:none;"/>
<path style="fill-rule:evenodd;fill:rgb(73.333335%,3.921569%,3.921569%);fill-opacity:1;stroke-width:0.1;stroke-linecap:butt;stroke-linejoin:miter;stroke:rgb(0%,0%,0%);stroke-opacity:1;stroke-miterlimit:10;" d="M 8.775 1.3875 C 8.775 2.153711 8.153711 2.775 7.3875 2.775 C 6.621289 2.775 6 2.153711 6 1.3875 C 6 0.621289 6.621289 -0.000000000745058 7.3875 -0.000000000745058 C 8.153711 -0.000000000745058 8.775 0.621289 8.775 1.3875 " transform="matrix(20,0,0,20,1,1)"/>
<path style="fill:none;stroke-width:0.1;stroke-linecap:butt;stroke-linejoin:miter;stroke:rgb(0%,0%,0%);stroke-opacity:1;stroke-miterlimit:10;" d="M 8.775 1.3875 C 8.775 2.153711 8.153711 2.775 7.3875 2.775 C 6.621289 2.775 6 2.153711 6 1.3875 C 6 0.621289 6.621289 -0.000000000745058 7.3875 -0.000000000745058 C 8.153711 -0.000000000745058 8.775 0.621289 8.775 1.3875 " transform="matrix(20,0,0,20,1,1)"/>
<path style="fill-rule:evenodd;fill:rgb(73.333335%,3.921569%,3.921569%);fill-opacity:1;stroke-width:0.1;stroke-linecap:butt;stroke-linejoin:miter;stroke:rgb(0%,0%,0%);stroke-opacity:1;stroke-miterlimit:10;" d="M 5.775 5.3875 C 5.775 6.153711 5.153711 6.775 4.3875 6.775 C 3.621289 6.775 3 6.153711 3 5.3875 C 3 4.621289 3.621289 4 4.3875 4 C 5.153711 4 5.775 4.621289 5.775 5.3875 " transform="matrix(20,0,0,20,1,1)"/>
<path style="fill:none;stroke-width:0.1;stroke-linecap:butt;stroke-linejoin:miter;stroke:rgb(0%,0%,0%);stroke-opacity:1;stroke-miterlimit:10;" d="M 5.775 5.3875 C 5.775 6.153711 5.153711 6.775 4.3875 6.775 C 3.621289 6.775 3 6.153711 3 5.3875 C 3 4.621289 3.621289 4 4.3875 4 C 5.153711 4 5.775 4.621289 5.775 5.3875 " transform="matrix(20,0,0,20,1,1)"/>
<path style="fill-rule:evenodd;fill:rgb(73.333335%,3.921569%,3.921569%);fill-opacity:1;stroke-width:0.1;stroke-linecap:butt;stroke-linejoin:miter;stroke:rgb(0%,0%,0%);stroke-opacity:1;stroke-miterlimit:10;" d="M 11.775 5.3875 C 11.775 6.153711 11.153711 6.775 10.3875 6.775 C 9.621289 6.775 9 6.153711 9 5.3875 C 9 4.621289 9.621289 4 10.3875 4 C 11.153711 4 11.775 4.621289 11.775 5.3875 " transform="matrix(20,0,0,20,1,1)"/>
<path style="fill:none;stroke-width:0.1;stroke-linecap:butt;stroke-linejoin:miter;stroke:rgb(0%,0%,0%);stroke-opacity:1;stroke-miterlimit:10;" d="M 11.775 5.3875 C 11.775 6.153711 11.153711 6.775 10.3875 6.775 C 9.621289 6.775 9 6.153711 9 5.3875 C 9 4.621289 9.621289 4 10.3875 4 C 11.153711 4 11.775 4.621289 11.775 5.3875 " transform="matrix(20,0,0,20,1,1)"/>
<path style="fill-rule:evenodd;fill:rgb(73.333335%,3.921569%,3.921569%);fill-opacity:1;stroke-width:0.1;stroke-linecap:butt;stroke-linejoin:miter;stroke:rgb(0%,0%,0%);stroke-opacity:1;stroke-miterlimit:10;" d="M 2.775 9.3875 C 2.775 10.153711 2.153711 10.775 1.3875 10.775 C 0.621289 10.775 -0.000000000745058 10.153711 -0.000000000745058 9.3875 C -0.000000000745058 8.621289 0.621289 8 1.3875 8 C 2.153711 8 2.775 8.621289 2.775 9.3875 " transform="matrix(20,0,0,20,1,1)"/>
<path style="fill:none;stroke-width:0.1;stroke-linecap:butt;stroke-linejoin:miter;stroke:rgb(0%,0%,0%);stroke-opacity:1;stroke-miterlimit:10;" d="M 2.775 9.3875 C 2.775 10.153711 2.153711 10.775 1.3875 10.775 C 0.621289 10.775 -0.000000000745058 10.153711 -0.000000000745058 9.3875 C -0.000000000745058 8.621289 0.621289 8 1.3875 8 C 2.153711 8 2.775 8.621289 2.775 9.3875 " transform="matrix(20,0,0,20,1,1)"/>
<path style="fill-rule:evenodd;fill:rgb(73.333335%,3.921569%,3.921569%);fill-opacity:1;stroke-width:0.1;stroke-linecap:butt;stroke-linejoin:miter;stroke:rgb(0%,0%,0%);stroke-opacity:1;stroke-miterlimit:10;" d="M 8.775 9.3875 C 8.775 10.153711 8.153711 10.775 7.3875 10.775 C 6.621289 10.775 6 10.153711 6 9.3875 C 6 8.621289 6.621289 8 7.3875 8 C 8.153711 8 8.775 8.621289 8.775 9.3875 " transform="matrix(20,0,0,20,1,1)"/>
<path style="fill:none;stroke-width:0.1;stroke-linecap:butt;stroke-linejoin:miter;stroke:rgb(0%,0%,0%);stroke-opacity:1;stroke-miterlimit:10;" d="M 8.775 9.3875 C 8.775 10.153711 8.153711 10.775 7.3875 10.775 C 6.621289 10.775 6 10.153711 6 9.3875 C 6 8.621289 6.621289 8 7.3875 8 C 8.153711 8 8.775 8.621289 8.775 9.3875 " transform="matrix(20,0,0,20,1,1)"/>
<path style="fill-rule:evenodd;fill:rgb(73.333335%,3.921569%,3.921569%);fill-opacity:1;stroke-width:0.1;stroke-linecap:butt;stroke-linejoin:miter;stroke:rgb(0%,0%,0%);stroke-opacity:1;stroke-miterlimit:10;" d="M 14.775 9.3875 C 14.775 10.153711 14.153711 10.775 13.3875 10.775 C 12.621289 10.775 12 10.153711 12 9.3875 C 12 8.621289 12.621289 8 13.3875 8 C 14.153711 8 14.775 8.621289 14.775 9.3875 " transform="matrix(20,0,0,20,1,1)"/>
<path style="fill:none;stroke-width:0.1;stroke-linecap:butt;stroke-linejoin:miter;stroke:rgb(0%,0%,0%);stroke-opacity:1;stroke-miterlimit:10;" d="M 14.775 9.3875 C 14.775 10.153711 14.153711 10.775 13.3875 10.775 C 12.621289 10.775 12 10.153711 12 9.3875 C 12 8.621289 12.621289 8 13.3875 8 C 14.153711 8 14.775 8.621289 14.775 9.3875 " transform="matrix(20,0,0,20,1,1)"/>
<path style="fill:none;stroke-width:0.1;stroke-linecap:butt;stroke-linejoin:miter;stroke:rgb(0%,0%,0%);stroke-opacity:1;stroke-miterlimit:10;" d="M 6.525391 2.536914 L 5.579492 3.798047 " transform="matrix(20,0,0,20,1,1)"/>
<path style="fill-rule:evenodd;fill:rgb(0%,0%,0%);fill-opacity:1;stroke-width:0.1;stroke-linecap:butt;stroke-linejoin:miter;stroke:rgb(0%,0%,0%);stroke-opacity:1;stroke-miterlimit:10;" d="M 5.379492 3.648047 L 5.279492 4.198047 L 5.779492 3.948047 Z M 5.379492 3.648047 " transform="matrix(20,0,0,20,1,1)"/>
<path style="fill:none;stroke-width:0.1;stroke-linecap:butt;stroke-linejoin:miter;stroke:rgb(0%,0%,0%);stroke-opacity:1;stroke-miterlimit:10;" d="M 8.249609 2.536914 L 9.195508 3.798047 " transform="matrix(20,0,0,20,1,1)"/>
<path style="fill-rule:evenodd;fill:rgb(0%,0%,0%);fill-opacity:1;stroke-width:0.1;stroke-linecap:butt;stroke-linejoin:miter;stroke:rgb(0%,0%,0%);stroke-opacity:1;stroke-miterlimit:10;" d="M 8.995508 3.948047 L 9.495508 4.198047 L 9.395508 3.648047 Z M 8.995508 3.948047 " transform="matrix(20,0,0,20,1,1)"/>
<path style="fill:none;stroke-width:0.1;stroke-linecap:butt;stroke-linejoin:miter;stroke:rgb(0%,0%,0%);stroke-opacity:1;stroke-miterlimit:10;" d="M 3.525391 6.536914 L 2.579492 7.798047 " transform="matrix(20,0,0,20,1,1)"/>
<path style="fill-rule:evenodd;fill:rgb(0%,0%,0%);fill-opacity:1;stroke-width:0.1;stroke-linecap:butt;stroke-linejoin:miter;stroke:rgb(0%,0%,0%);stroke-opacity:1;stroke-miterlimit:10;" d="M 2.379492 7.648047 L 2.279492 8.198047 L 2.779492 7.948047 Z M 2.379492 7.648047 " transform="matrix(20,0,0,20,1,1)"/>
<path style="fill:none;stroke-width:0.1;stroke-linecap:butt;stroke-linejoin:miter;stroke:rgb(0%,0%,0%);stroke-opacity:1;stroke-miterlimit:10;" d="M 5.249609 6.536914 L 6.195508 7.798047 " transform="matrix(20,0,0,20,1,1)"/>
<path style="fill-rule:evenodd;fill:rgb(0%,0%,0%);fill-opacity:1;stroke-width:0.1;stroke-linecap:butt;stroke-linejoin:miter;stroke:rgb(0%,0%,0%);stroke-opacity:1;stroke-miterlimit:10;" d="M 5.995508 7.948047 L 6.495508 8.198047 L 6.395508 7.648047 Z M 5.995508 7.948047 " transform="matrix(20,0,0,20,1,1)"/>
<path style="fill:none;stroke-width:0.1;stroke-linecap:butt;stroke-linejoin:miter;stroke:rgb(0%,0%,0%);stroke-opacity:1;stroke-miterlimit:10;" d="M 11.249609 6.536914 L 12.195508 7.798047 " transform="matrix(20,0,0,20,1,1)"/>
<path style="fill-rule:evenodd;fill:rgb(0%,0%,0%);fill-opacity:1;stroke-width:0.1;stroke-linecap:butt;stroke-linejoin:miter;stroke:rgb(0%,0%,0%);stroke-opacity:1;stroke-miterlimit:10;" d="M 11.995508 7.948047 L 12.495508 8.198047 L 12.395508 7.648047 Z M 11.995508 7.948047 " transform="matrix(20,0,0,20,1,1)"/>
</g>
</svg>
